<?xml version="1.0" encoding="UTF-8"?>
<svg width="400px" height="400px" viewBox="0 0 400 400" version="1.1" xmlns="http://www.w3.org/2000/svg" xmlns:xlink="http://www.w3.org/1999/xlink">
    <!-- Generator: Sketch 52.6 (67491) - http://www.bohemiancoding.com/sketch -->
    <title>Group 2</title>
    <desc>Created with Sketch.</desc>
    <g id="Page-1" stroke="none" stroke-width="1" fill="none" fill-rule="evenodd">
        <g id="Group-2">
            <rect id="Rectangle" fill="#FFFFFF" x="0" y="0" width="400" height="400"></rect>
            <g id="Group" transform="translate(63.000000, 94.000000)">
                <g id="VisegraÌd_Group_logo" fill="#231F20">
                    <g id="#231f20ff">
                        <path d="M147.170029,0.306042155 C151.902945,-0.802201405 157.076239,2.30922717 158.35102,6.98796253 C159.542362,10.9015925 157.933819,15.4829508 154.47105,17.6948009 C151.128805,19.9993911 146.326356,19.809274 143.178805,17.2450117 C140.267668,15.0099766 138.914082,11.0082436 139.804111,7.45629977 C140.606064,3.91362998 143.605277,0.996955504 147.170029,0.306042155 Z" id="Path"></path>
                        <path d="M7.60233236,98.5409368 C10.6154519,97.7480094 14.0040525,98.5223888 16.3357434,100.60904 C18.8296793,102.746698 20.0534694,106.242998 19.4647522,109.474988 C18.8667638,113.235597 15.8072886,116.44904 12.0710204,117.209508 C8.72413994,117.993162 5.00641399,116.768993 2.77670554,114.158361 C0.68606414,111.830585 -0.0788046647,108.4363 0.709241983,105.422248 C1.53437318,102.102155 4.27862974,99.3570492 7.60233236,98.5409368 Z" id="Path"></path>
                        <path d="M78.9761808,161.599532 C81.8780466,160.806604 85.1414869,161.455785 87.482449,163.352319 C89.8234111,165.183934 91.2048105,168.156253 91.0981924,171.128571 C91.0518367,174.267822 89.3181341,177.295785 86.6665889,178.969742 C83.658105,180.935831 79.5231778,180.963653 76.4776093,179.057845 C73.3022449,177.161311 71.4572886,173.317237 71.9811079,169.649368 C72.398309,165.870211 75.3048105,162.550117 78.9761808,161.599532 Z" id="Path"></path>
                        <path d="M129.415802,179.071756 C131.812391,178.487494 134.436122,178.816721 136.577755,180.068712 C139.47035,181.700937 141.375569,184.942201 141.357026,188.276206 C141.445102,191.50356 139.729942,194.693817 137.013499,196.432693 C133.773236,198.593536 129.19793,198.482248 126.082828,196.126651 C123.218047,194.077096 121.692945,190.362857 122.277026,186.889742 C122.79621,183.156956 125.758338,179.943513 129.415802,179.071756 Z" id="Path"></path>
                    </g>
                </g>
                <path d="M117.494874,145 L80,53.4670051 L97.5233774,53.4670051 L124.710382,123.317716 L151.768538,53.4670051 L168.905371,53.4670051 L131.539345,145 L117.494874,145 Z M233.813015,144.532995 L233.813015,124.149051 L188.170787,124.149051 L185.196931,112.723656 L235.49389,53 L249.07019,53 L249.07019,111.035814 L262,111.035814 L262,124.149051 L249.07019,124.149051 L249.07019,144.532995 L233.813015,144.532995 Z M204.28133,110.908629 L234.071611,110.908629 L234.071611,75.4162437 L204.28133,110.908629 Z" id="V4" fill="#000000"></path>
            </g>
        </g>
    </g>
</svg>