<?xml version="1.0" encoding="UTF-8"?>
<svg width="400px" height="400px" viewBox="0 0 400 400" version="1.1" xmlns="http://www.w3.org/2000/svg" xmlns:xlink="http://www.w3.org/1999/xlink">
    <!-- Generator: Sketch 52.6 (67491) - http://www.bohemiancoding.com/sketch -->
    <title>Group 3</title>
    <desc>Created with Sketch.</desc>
    <g id="Page-1" stroke="none" stroke-width="1" fill="none" fill-rule="evenodd">
        <g id="Group-3">
            <rect id="Rectangle" fill="#1690D8" x="0" y="0" width="400" height="400"></rect>
            <g id="noun_world_3037748" transform="translate(63.000000, 63.000000)" fill="#FFFFFF" fill-rule="nonzero">
                <path d="M245.621429,53.8866667 C220.57,21.202381 181.231429,0 137,0 C92.7685714,0 53.43,21.202381 28.3785714,53.8866667 C27.6609524,54.5390476 27.0085714,55.3219048 26.6171429,56.2352381 C9.98142857,78.8728571 0,106.794762 0,137 C0,167.205238 9.98142857,195.127143 26.6171429,217.764762 C27.0085714,218.678095 27.6609524,219.460952 28.3785714,220.113333 C53.43,252.797619 92.7685714,274 137,274 C181.231429,274 220.57,252.797619 245.621429,220.113333 C246.339048,219.460952 246.991429,218.678095 247.382857,217.764762 C264.018571,195.127143 274,167.205238 274,137 C274,106.794762 264.018571,78.8728571 247.382857,56.2352381 C246.991429,55.2566667 246.404286,54.5390476 245.621429,53.8866667 Z M227.159048,52.1904762 L203.477619,52.1904762 C197.671429,40.382381 190.75619,30.14 182.862381,21.9852381 C199.824286,28.7047619 214.829048,39.1428571 227.159048,52.1904762 Z M168.640476,169.619048 L206.152381,169.619048 C203.869048,183.840952 200.215714,197.084286 195.388095,208.761905 L165.248095,208.761905 C166.944286,195.192381 167.988095,181.427143 168.640476,169.619048 Z M165.248095,65.2380952 L195.388095,65.2380952 C200.215714,76.9157143 203.869048,90.1590476 206.152381,104.380952 L168.640476,104.380952 C167.988095,92.5728571 166.944286,78.807619 165.248095,65.2380952 Z M169.227619,156.571429 C169.619048,145.741905 169.619048,138.239524 169.619048,137 C169.619048,135.760476 169.619048,128.258095 169.227619,117.428571 L207.783333,117.428571 C208.370476,123.821905 208.761905,130.345714 208.761905,137 C208.761905,143.654286 208.370476,150.178095 207.783333,156.571429 L169.227619,156.571429 Z M189.190476,52.1904762 L163.35619,52.1904762 C161.138095,38.7514286 158.202381,26.2257143 154.157619,16.7661905 C167.792381,22.572381 179.861429,35.0980952 189.190476,52.1904762 Z M156.571429,137 C156.571429,143.85 156.440952,150.308571 156.245238,156.571429 L117.754762,156.571429 C117.559048,150.308571 117.428571,143.85 117.428571,137 C117.428571,130.15 117.559048,123.691429 117.754762,117.428571 L156.245238,117.428571 C156.440952,123.691429 156.571429,130.15 156.571429,137 Z M136.608571,13.1128571 C136.67381,13.1128571 136.739048,13.1128571 136.804286,13.1128571 C140.653333,14.8090476 146.068095,28.3133333 150.243333,52.2557143 L123.756667,52.2557143 C127.866667,28.3133333 133.085714,14.8742857 136.608571,13.1128571 Z M152.265714,65.2380952 C153.76619,76.5242857 155.005714,89.6371429 155.788571,104.380952 L118.341905,104.380952 C119.124762,89.6371429 120.299048,76.5242857 121.799524,65.2380952 L152.265714,65.2380952 Z M119.842381,16.7661905 C115.797619,26.2257143 112.861905,38.7514286 110.64381,52.1904762 L84.8095238,52.1904762 C94.1385714,35.0980952 106.207619,22.572381 119.842381,16.7661905 Z M104.772381,156.571429 L66.2166667,156.571429 C65.6295238,150.178095 65.2380952,143.654286 65.2380952,137 C65.2380952,130.345714 65.6295238,123.821905 66.2166667,117.428571 L104.772381,117.428571 C104.380952,128.258095 104.380952,135.760476 104.380952,137 C104.380952,138.239524 104.380952,145.741905 104.772381,156.571429 Z M105.359524,169.619048 C106.011905,181.427143 107.055714,195.192381 108.751905,208.761905 L78.6119048,208.761905 C73.7842857,197.084286 70.1309524,183.840952 67.847619,169.619048 L105.359524,169.619048 Z M105.359524,104.380952 L67.847619,104.380952 C70.1309524,90.1590476 73.7842857,76.9157143 78.6119048,65.2380952 L108.751905,65.2380952 C107.055714,78.807619 106.011905,92.5728571 105.359524,104.380952 Z M91.137619,21.9852381 C83.3090476,30.2052381 76.3285714,40.382381 70.522381,52.1904762 L46.8409524,52.1904762 C59.1709524,39.1428571 74.1757143,28.7047619 91.137619,21.9852381 Z M36.1419048,65.2380952 L64.9119048,65.2380952 C60.3452381,77.1766667 56.887619,90.3547619 54.7347619,104.380952 L17.5490476,104.380952 C21.4633333,90.1590476 27.7914286,76.9157143 36.1419048,65.2380952 Z M13.047619,137 C13.047619,130.345714 13.7,123.821905 14.7438095,117.428571 L53.1690476,117.428571 C52.5819048,123.821905 52.1904762,130.345714 52.1904762,137 C52.1904762,143.654286 52.5819048,150.178095 53.1690476,156.571429 L14.7438095,156.571429 C13.7,150.178095 13.047619,143.654286 13.047619,137 Z M36.1419048,208.761905 C27.7914286,197.084286 21.4633333,183.840952 17.5490476,169.619048 L54.7347619,169.619048 C56.887619,183.645238 60.3452381,196.823333 64.9119048,208.761905 L36.1419048,208.761905 Z M46.8409524,221.809524 L70.522381,221.809524 C76.3285714,233.617619 83.2438095,243.86 91.137619,252.014762 C74.1757143,245.295238 59.1709524,234.857143 46.8409524,221.809524 Z M84.8095238,221.809524 L110.64381,221.809524 C112.861905,235.248571 115.797619,247.774286 119.842381,257.23381 C106.207619,251.427619 94.1385714,238.901905 84.8095238,221.809524 Z M137.391429,260.887143 C137.32619,260.887143 137.260952,260.887143 137.195714,260.887143 C133.346667,259.190952 127.931905,245.686667 123.756667,221.744286 L150.243333,221.744286 C146.133333,245.686667 140.914286,259.125714 137.391429,260.887143 Z M121.734286,208.761905 C120.23381,197.475714 118.994286,184.362857 118.211429,169.619048 L155.658095,169.619048 C154.875238,184.362857 153.700952,197.475714 152.200476,208.761905 L121.734286,208.761905 Z M154.157619,257.23381 C158.202381,247.839524 161.138095,235.248571 163.35619,221.809524 L189.190476,221.809524 C179.861429,238.901905 167.792381,251.427619 154.157619,257.23381 Z M182.862381,252.014762 C190.690952,243.794762 197.671429,233.617619 203.477619,221.809524 L227.159048,221.809524 C214.829048,234.857143 199.824286,245.295238 182.862381,252.014762 Z M237.858095,208.761905 L209.088095,208.761905 C213.654762,196.823333 217.112381,183.645238 219.265238,169.619048 L256.450952,169.619048 C252.536667,183.840952 246.208571,197.084286 237.858095,208.761905 Z M260.952381,137 C260.952381,143.654286 260.3,150.178095 259.25619,156.571429 L220.830952,156.571429 C221.418095,150.178095 221.809524,143.654286 221.809524,137 C221.809524,130.345714 221.418095,123.821905 220.830952,117.428571 L259.25619,117.428571 C260.3,123.821905 260.952381,130.345714 260.952381,137 Z M219.265238,104.380952 C217.112381,90.3547619 213.654762,77.1766667 209.088095,65.2380952 L237.858095,65.2380952 C246.208571,76.9157143 252.536667,90.1590476 256.450952,104.380952 L219.265238,104.380952 Z" id="Shape"></path>
            </g>
        </g>
    </g>
</svg>